# xmcd CD database file
# Copyright (C) 1996 Ti Kan
#
# Track frame offsets:
# 	150
# 	18800
# 	32923
# 	46019
# 	66666
# 	83195
# 	97796
# 	109781
# 	121644
# 	140528
# 	158446
# 	173727
# 	183262
# 	193403
# 	217210
# 	231368
#
# Disc length: 3164 seconds
#
# Revision: 1
# Processed by: cddbd v1.4b41PL1 Copyright (c) Steve Scherf et al.
# Submitted via: DiscPlay 3.4.1
#
DISCID=d40c5a10
DTITLE=Various Artist - Rig Rock Deluxe
DYEAR=1900
DGENRE=
TTITLE0=Truck driving man
TTITLE1=Will there be big rigs in heaven
TTITLE2=Nitro express
TTITLE3=Miss Marie and the Bedford Blaze
TTITLE4=Truckstop girl
TTITLE5=Mother trucker
TTITLE6=Lookin' at the world through a windshield
TTITLE7=Diesel, diesel, diesel
TTITLE8=Wagon of clay
TTITLE9=White freight train liner blues
TTITLE10=Highway junkie
TTITLE11=Semi-truck
TTITLE12=Mama was a rock (daddy was a roling stone)
TTITLE13=I'm comin' home
TTITLE14=Truck drivin' man
TTITLE15=Six days on the road
EXTD=
EXTT0=
EXTT1=
EXTT2=
EXTT3=
EXTT4=
EXTT5=
EXTT6=
EXTT7=
EXTT8=
EXTT9=
EXTT10=
EXTT11=
EXTT12=
EXTT13=
EXTT14=
EXTT15=
PLAYORDER=
